<svg width="459" height="618" viewBox="0 0 459 618" fill="none" xmlns="http://www.w3.org/2000/svg">
<path d="M133.989 587.082C102.447 597.797 76.1596 608.386 56.4763 616.854C73.8722 563.003 90.3358 501.331 102.99 432.607L102.498 432.517L102.99 432.607C119.582 342.421 125.842 260.587 126.894 190.657C136.213 180.529 150.327 165.116 167.462 146.229L167.092 145.893L167.462 146.229C177.339 135.339 185.174 126.648 191.525 119.604C213.609 95.1087 217.736 90.531 227.311 82.6508C240.282 71.9864 261.07 60.8177 302.726 38.4375L302.965 38.3094L302.728 37.869L302.965 38.3094C334.22 21.515 349.208 13.6198 358.245 9.59464C366.111 6.09091 369.433 5.53267 375.123 4.57627C375.94 4.43896 376.806 4.29345 377.741 4.12983L377.655 3.63732L377.741 4.12981C386.143 2.6566 398.631 0.467505 411.299 0.86474C423.973 1.26217 436.739 4.24657 445.769 13.0387C455.065 22.0973 458.012 34.9914 457.696 50.065C457.379 65.1412 453.801 82.2928 450.15 99.7798C441.497 141.205 426.013 177.008 412.691 202.457C406.03 215.181 399.911 225.314 395.458 232.265C393.231 235.74 391.421 238.419 390.169 240.229C389.543 241.134 389.056 241.821 388.726 242.282C388.561 242.512 388.435 242.686 388.351 242.802C388.309 242.86 388.277 242.903 388.256 242.932L388.232 242.964L388.226 242.972L388.225 242.974C388.224 242.974 388.224 242.975 388.626 243.272L388.224 242.975L388.224 242.975C383.022 250.04 378.02 256.276 373.37 262.072C372.971 262.57 372.574 263.064 372.18 263.556C367.201 269.768 362.647 275.507 358.736 281.253C350.904 292.76 345.635 304.312 344.605 319.833C344.359 323.548 345.134 329.097 346.978 337.263C348.825 345.443 351.757 356.3 355.855 370.654C370.278 421.166 377.506 446.465 389.952 475.519L390.412 475.322L389.952 475.519C400.289 499.638 408.639 514.41 414.261 524.317L414.416 524.59C417.153 529.414 419.213 533.044 420.532 536.042C421.873 539.092 422.418 541.425 422.153 543.635L422.153 543.638C421.987 545.096 421.623 545.882 421.143 546.917C421.087 547.038 421.029 547.162 420.97 547.291L421.425 547.499L420.97 547.292C418.008 553.778 411.354 556.859 401.336 557.956C391.324 559.052 378.126 558.146 362.318 556.818C360.313 556.65 358.266 556.475 356.179 556.296C325.404 553.662 285.921 550.284 241.946 556.7C209.393 561.451 183.574 570.224 133.989 587.082Z" fill="white" stroke="#204CCF"/>
<path d="M0.741211 309.132L109.899 207.115C112.323 239.014 111.411 265.127 109.899 283.983C108.036 307.294 104.635 327.44 103.189 335.897C101.416 346.23 99.6702 354.961 98.276 361.489C65.7644 344.028 33.2528 326.58 0.741211 309.119V309.132Z" fill="white" stroke="#204CCF" stroke-miterlimit="10"/>
<path d="M60.8127 554.63C68.0057 529.064 74.8207 501.66 80.906 472.524C87.9296 438.879 93.1419 406.927 96.9859 377.009L0.741211 448.065L60.8127 554.643V554.63Z" fill="white" stroke="#204CCF" stroke-miterlimit="10"/>
<path d="M239.255 192.586C253.26 192.586 264.613 181.233 264.613 167.228C264.613 153.223 253.26 141.87 239.255 141.87C225.251 141.87 213.897 153.223 213.897 167.228C213.897 181.233 225.251 192.586 239.255 192.586Z" fill="white" stroke="#204CCF" stroke-width="10" stroke-miterlimit="10"/>
<path d="M217.128 298.199C224.282 306.487 243.007 325.694 271.388 329.199C314.05 334.49 347.239 300.453 355.423 292.062C360.361 287.006 363.984 282.393 366.316 279.226" fill="white"/>
<path d="M217.128 298.199C224.282 306.487 243.007 325.694 271.388 329.199C314.05 334.49 347.239 300.453 355.423 292.062C360.361 287.006 363.984 282.393 366.316 279.226" stroke="#204CCF" stroke-width="11" stroke-miterlimit="10" stroke-linecap="round"/>
</svg>
