<svg width="2512" height="1728" viewBox="0 0 2512 1728" fill="none" xmlns="http://www.w3.org/2000/svg">
<path d="M810.8 793.354L810.344 793.149L810.8 793.354C824.705 762.38 840.605 739.535 851.386 724.162C882.503 679.858 936.168 625.21 1055.9 550.404C1155.43 488.211 1250.86 428.598 1391.05 416.727L1391.01 416.229L1391.05 416.727C1531.84 404.798 1636.95 447.873 1660.05 457.758L1660.19 457.817C1709.79 479.058 1818.13 525.459 1882.51 640.713C1935.88 736.252 1930.55 827.419 1927.93 872.242L1927.93 872.313C1921.42 983.234 1876.53 1061.83 1853.67 1101C1831.47 1139.04 1801.95 1189.61 1746.44 1232.81C1712.87 1258.93 1687.34 1268.7 1654.36 1277.4C1646.14 1279.57 1637.45 1281.67 1628.06 1283.95C1599.77 1290.79 1565.1 1299.19 1517.53 1315.59C1440.86 1342.03 1391.76 1368.22 1351.06 1389.93C1343.26 1394.09 1335.77 1398.08 1328.45 1401.88C1282.98 1425.51 1244.19 1441.64 1179.57 1443.19C1147.91 1443.97 1099.12 1444.66 1043.42 1423.18C965.065 1392.97 912.478 1334.81 876.553 1274.73C840.627 1214.64 821.382 1152.67 809.697 1114.89C793.209 1061.59 751.265 925.877 810.8 793.354Z" fill="#204CCF" stroke="#204CCF"/>
<path d="M810.344 793.149C750.724 925.861 792.733 1061.75 809.219 1115.04C832.59 1190.6 886.256 1363.12 1043.24 1423.65C1099.04 1445.17 1147.91 1444.47 1179.59 1443.69C1309.03 1440.57 1335.04 1379.05 1517.7 1316.06C1644.35 1272.38 1679.47 1285.55 1746.75 1233.2C1802.34 1189.94 1831.9 1139.3 1854.1 1101.25C1876.97 1062.07 1921.91 983.385 1928.42 872.341C1931.04 827.531 1936.42 736.191 1882.94 640.469C1818.42 524.948 1709.79 478.513 1660.25 457.298C1637.11 447.399 1531.91 404.289 1391.01 416.228C1250.69 428.111 1155.17 487.789 1055.63 549.979C935.868 624.808 882.144 679.498 850.976 723.874C840.193 739.252 824.269 762.129 810.344 793.149Z" stroke="#204CCF" stroke-miterlimit="10"/>
<path d="M1724.31 184.776L1692.68 30.0114L1974.62 6.23804C1958.75 13.8977 1938.47 24.2122 1915.43 37.3438C1894.15 49.4743 1864.48 66.508 1829.39 92.8623C1807.57 109.246 1791.9 123.035 1773.11 139.578L1772.76 139.889C1752.92 157.359 1736.58 172.823 1724.31 184.776Z" fill="#204CCF" stroke="#204CCF"/>
<path d="M1977.28 5.51134L1692.08 29.56L1724 185.773C1736.34 173.739 1752.9 158.04 1773.09 140.263C1792.04 123.582 1807.75 109.735 1829.69 93.2617C1864.75 66.9272 1894.41 49.906 1915.68 37.7778C1939.91 23.9682 1961.09 13.2757 1977.28 5.51134Z" stroke="#204CCF" stroke-miterlimit="10" stroke-linecap="round" stroke-linejoin="round"/>
<path d="M1569.5 174.094L1697.77 205.933C1677.11 229.271 1650.05 256.099 1615.67 282.668C1580.59 309.745 1546.94 329.546 1518.45 343.944L1569.5 174.094Z" fill="#204CCF" stroke="#204CCF"/>
<path d="M1698.69 205.646L1569.15 173.493L1517.64 344.914C1546.36 330.462 1580.44 310.494 1615.97 283.063C1650.69 256.238 1677.94 229.147 1698.69 205.646Z" stroke="#204CCF" stroke-miterlimit="10" stroke-linecap="round" stroke-linejoin="round"/>
<path d="M1349.67 1414.31L1349.67 1414.31C1351.35 1415.32 1352.37 1416.88 1352.84 1419.05C1353.31 1421.24 1353.2 1424.03 1352.62 1427.44C1351.45 1434.27 1348.39 1443.4 1344.43 1454.8C1344 1456.04 1343.56 1457.3 1343.11 1458.59C1335.29 1481.03 1324.72 1511.4 1318.31 1549.06C1313.38 1578.04 1312.45 1602.18 1311.66 1622.74C1311.35 1630.9 1311.06 1638.5 1310.54 1645.61C1308.74 1670.64 1304.21 1689.68 1286.52 1706.45L1286.5 1706.46C1280.54 1712.1 1267.84 1724.11 1249.53 1725.88C1230.16 1727.77 1212.95 1717.16 1195.87 1700.2C1183.45 1687.87 1171.16 1672.26 1158.2 1655.78C1153.33 1649.61 1148.38 1643.31 1143.28 1637.01C1105.43 1590.26 1075.23 1555.01 1052.31 1528.26C1041.3 1515.41 1031.97 1504.51 1024.28 1495.25C1012.41 1480.95 1004.45 1470.55 1000.21 1462.78C995.946 1454.98 995.534 1450.05 998.326 1446.49C1000.05 1444.3 1002.67 1443.05 1006.19 1442.57C1009.72 1442.09 1014.11 1442.38 1019.32 1443.23C1027.41 1444.55 1037.36 1447.2 1048.94 1450.28C1052.29 1451.17 1055.78 1452.1 1059.4 1453.04C1091.63 1461.44 1134.07 1470.95 1182.14 1466.05C1199.45 1464.29 1214.95 1461.44 1226.12 1459.02C1231.7 1457.82 1236.21 1456.72 1239.32 1455.93C1240.87 1455.53 1242.08 1455.21 1242.9 1454.99C1243.31 1454.87 1243.62 1454.79 1243.83 1454.73C1243.94 1454.7 1244.02 1454.68 1244.07 1454.66L1244.09 1454.66H1244.09L1244.14 1454.64L1244.14 1454.64L1244.16 1454.64C1261.17 1449.74 1278.49 1443.3 1291.56 1438.1C1298.1 1435.49 1303.57 1433.19 1307.41 1431.55C1309.33 1430.72 1310.85 1430.06 1311.88 1429.61C1312.39 1429.38 1312.79 1429.2 1313.06 1429.08C1313.19 1429.02 1313.29 1428.98 1313.36 1428.95L1313.44 1428.91L1313.46 1428.9L1313.46 1428.9L1313.46 1428.9C1313.46 1428.9 1313.46 1428.9 1313.26 1428.45L1313.46 1428.9L1313.46 1428.9C1322.82 1424.67 1329.56 1421.31 1334.52 1418.84C1336.9 1417.65 1338.87 1416.67 1340.52 1415.89C1343.09 1414.69 1344.88 1413.98 1346.29 1413.74C1347.66 1413.5 1348.66 1413.7 1349.67 1414.31Z" fill="#204CCF" stroke="#204CCF"/>
<path d="M997.934 1446.19C985.948 1461.43 1030.83 1498.91 1142.89 1637.33C1180.19 1683.39 1210.37 1730.2 1249.58 1726.38C1268.09 1724.59 1280.91 1712.44 1286.86 1706.81C1322.53 1673.01 1305.03 1630.06 1318.8 1549.14C1332.34 1469.59 1364.48 1422.65 1349.93 1413.88C1345.43 1411.16 1340.99 1415.9 1313.26 1428.45C1313.26 1428.45 1278 1444.37 1244.02 1454.16C1244 1454.16 1216.67 1462.04 1182.09 1465.55C1086.14 1475.34 1012.6 1427.58 997.934 1446.19Z" stroke="#204CCF" stroke-miterlimit="10"/>
<path d="M1527.01 1442.45L1526.62 1442.77L1527.01 1442.45C1506.97 1417.42 1495.37 1400.65 1489.49 1388.55C1483.61 1376.47 1483.48 1369.14 1486.25 1362.91C1487.85 1359.32 1490.22 1356.51 1495.39 1353.39C1500.58 1350.25 1508.56 1346.81 1521.35 1341.96C1567.12 1324.62 1606.86 1314.77 1630.05 1309.02C1631.93 1308.56 1633.7 1308.12 1635.35 1307.71L1635.35 1307.71L1635.8 1307.59C1675.61 1297.64 1695.61 1292.64 1708.84 1286.99L1708.84 1286.99C1746.27 1271 1771.64 1248.2 1789.25 1230.25C1792.94 1226.48 1796.29 1222.94 1799.33 1219.72C1803.55 1215.25 1807.18 1211.4 1810.35 1208.43C1813.08 1205.89 1815.42 1204.04 1817.45 1203.02C1819.48 1202.01 1821.12 1201.87 1822.53 1202.59L1822.54 1202.59C1823.97 1203.33 1824.71 1204.73 1824.81 1206.96C1824.92 1209.22 1824.37 1212.23 1823.32 1216.01C1822.06 1220.58 1820.1 1226.18 1817.79 1232.78C1816.29 1237.07 1814.64 1241.78 1812.93 1246.91C1804.3 1272.9 1794.41 1309.31 1796.02 1354.32C1797.68 1400.91 1799.67 1438.36 1801.25 1464.17C1802.04 1477.08 1802.73 1487.07 1803.21 1493.84C1803.46 1497.22 1803.65 1499.8 1803.79 1501.53C1803.85 1502.4 1803.91 1503.05 1803.94 1503.49C1803.96 1503.71 1803.97 1503.87 1803.98 1503.98L1803.99 1504.11L1803.99 1504.14L1803.99 1504.15L1803.99 1504.15C1803.99 1504.15 1803.99 1504.15 1803.99 1504.15L1803.99 1504.15L1804 1504.25C1804.41 1509.32 1805.41 1521.58 1800.64 1536.05C1793.34 1558.2 1775.53 1576.43 1759.49 1584.32C1734.24 1596.75 1702.93 1588.69 1674.44 1574.8C1645.98 1560.92 1620.48 1541.32 1606.93 1530.9C1584.95 1513.99 1565.39 1490.4 1527.01 1442.45Z" fill="#204CCF" stroke="#204CCF"/>
<path d="M1485.79 1362.7C1480.09 1375.53 1486.53 1392.7 1526.62 1442.77C1564.98 1490.69 1584.59 1514.35 1606.62 1531.29C1633.72 1552.13 1708.76 1609.84 1759.71 1584.77C1775.87 1576.82 1793.77 1558.49 1801.12 1536.2C1805.95 1521.54 1804.9 1509.13 1804.49 1504.11C1804.49 1504.11 1799.84 1447.47 1796.52 1354.3C1793.3 1264.45 1836.03 1208.91 1822.76 1202.15C1809.9 1195.57 1783.33 1254.61 1708.64 1286.53C1695.41 1292.18 1675.36 1297.19 1635.23 1307.22C1613.14 1312.74 1570.69 1322.73 1521.17 1341.49C1495.61 1351.2 1489.09 1355.3 1485.79 1362.7Z" stroke="#204CCF" stroke-miterlimit="10"/>
<path d="M753.535 852.626L753.535 852.626C755.754 853.573 757.22 855.238 758.123 857.673C759.035 860.129 759.371 863.361 759.299 867.399C759.19 873.581 758.131 881.517 756.838 891.214C756.44 894.196 756.02 897.344 755.599 900.658C752.02 928.811 748.377 968.734 757.603 1019.78C764.787 1059.59 776.503 1087.7 785.703 1109.77C787.072 1113.06 788.386 1116.21 789.621 1119.24C799.158 1142.7 803.914 1159.15 793.579 1177.44L794.014 1177.68L793.579 1177.44C786.401 1190.14 777.173 1194.49 758.371 1202.09C757.114 1202.59 755.815 1203.11 754.472 1203.65C735.721 1211.19 708.335 1222.2 666.399 1246.16L666.648 1246.6L666.399 1246.16C637.973 1262.42 616.27 1276.95 598.988 1288.52L598.875 1288.59L598.875 1288.59C574.08 1305.21 558.555 1316.82 522.19 1344C515.497 1349 508.097 1354.53 499.804 1360.72C489.922 1368.09 481.143 1374.67 473.308 1380.55C449.748 1398.21 434.729 1409.47 423.942 1416.52C416.759 1421.22 411.485 1424.02 406.839 1425.61C402.206 1427.19 398.176 1427.56 393.472 1427.36C375.568 1426.59 357.043 1418.19 342.308 1405.6C327.573 1393 316.681 1376.26 313.979 1358.87L313.485 1358.95L313.979 1358.87C311.736 1344.46 315.297 1331.07 328.715 1311.85C342.149 1292.61 365.416 1267.6 402.495 1229.99L403.351 1229.12C458.816 1172.85 486.697 1144.56 520.027 1114.43C597.791 1044.15 649.377 975.683 684.989 926.276C688.662 921.18 692.164 916.288 695.507 911.619C708.376 893.645 718.881 878.972 727.678 868.651C733.22 862.15 738.052 857.414 742.34 854.672C746.623 851.934 750.275 851.235 753.535 852.626Z" fill="#204CCF" stroke="#204CCF"/>
<path d="M753.731 852.165C772.641 860.232 739.67 917.737 758.095 1019.69C774.58 1111.03 814.941 1140.66 794.014 1177.68C779.468 1203.43 756.466 1195.27 666.648 1246.6C638.176 1262.88 616.453 1277.43 599.153 1289.01C569.809 1308.67 553.459 1321.31 500.103 1361.12C420.933 1420.17 412.457 1428.67 393.45 1427.86C357.376 1426.31 318.935 1394.03 313.485 1358.94C308.946 1329.8 327.992 1304.86 402.139 1229.63C458.171 1172.79 486.177 1144.36 519.692 1114.06C675.143 973.58 725.938 840.301 753.731 852.165Z" stroke="#204CCF" stroke-miterlimit="10"/>
<path d="M1498.82 385.942L1498.82 385.942C1499.15 389.955 1501.3 393.194 1505.13 395.949C1508.98 398.715 1514.5 400.97 1521.49 402.989C1531.95 406.011 1545.58 408.475 1561.59 411.372C1566.99 412.348 1572.66 413.373 1578.57 414.485C1625.42 423.302 1687.21 437.545 1748.22 476.05C1800.23 508.86 1835.93 549.361 1861.83 580.134C1863.87 582.558 1865.84 584.921 1867.77 587.215C1878.04 599.49 1886.65 609.774 1894.11 616.802C1898.53 620.972 1902.51 623.961 1906.16 625.543C1909.79 627.117 1913.06 627.286 1916.11 625.866L1916.11 625.865C1919.1 624.481 1920.88 622.05 1922.01 617.471C1923.14 612.859 1923.6 606.161 1923.97 596.357C1924.08 593.456 1924.19 590.288 1924.3 586.827C1924.96 566.928 1925.95 537.36 1930.33 493.388C1935.26 444.058 1940.29 419.597 1949.25 399.926C1952.77 392.196 1956.85 384.527 1960.83 377.166C1961.23 376.422 1961.63 375.682 1962.03 374.945C1965.58 368.381 1968.98 362.089 1971.76 356.228C1974.85 349.705 1977.14 343.754 1977.99 338.594C1978.84 333.438 1978.24 329.14 1975.65 325.84L1975.65 325.839C1975.44 325.577 1975.28 325.398 1975.02 325.184C1974.75 324.961 1974.36 324.695 1973.68 324.278C1972.94 323.82 1971.88 323.197 1970.31 322.27C1969.01 321.505 1967.35 320.532 1965.23 319.273L1965.49 318.843L1965.23 319.273C1957.72 314.804 1949.77 309.846 1934.47 300.297L1932.56 299.111L1932.83 298.686L1932.56 299.11C1929.56 297.238 1923.35 293.326 1916.94 288.349C1910.54 283.379 1903.88 277.314 1900.03 271.125C1898.84 269.235 1897.1 266.023 1897.7 262.208C1897.7 262.208 1897.7 262.207 1897.7 262.206L1898.19 262.283C1898.85 257.9 1902.5 254.367 1905.62 252.931L1498.82 385.942ZM1498.82 385.942C1498.41 380.96 1500.98 376.852 1506.47 372.617C1511.97 368.373 1520.3 364.088 1531.18 358.749C1532.95 357.879 1534.79 356.981 1536.7 356.051C1558.14 345.59 1587.83 331.101 1623.7 306.39C1656.91 283.513 1671.67 268.234 1690.5 248.035C1691.38 247.083 1692.28 246.121 1693.19 245.146C1711.52 225.448 1734.52 200.742 1781.66 160.176C1842.52 107.809 1889 76.0326 1931.08 51.3764C1983.15 20.8712 2009.77 5.617 2044.09 1.94685C2063.18 -0.0849717 2082.81 2.19766 2107.79 8.2665C2132.27 14.2123 2161.86 23.7833 2201.07 36.4689L2203.54 37.2711C2228.46 45.3368 2254.96 53.9828 2289.42 69.0664C2299.45 73.462 2336.8 90.0578 2392.13 123.462C2430.63 146.702 2458.82 164.33 2477.97 179.515M1498.82 385.942L2477.97 179.515M2477.97 179.515C2497.14 194.708 2507.15 207.379 2509.45 220.675M2477.97 179.515L2509.45 220.675M2509.45 220.675C2512.85 240.187 2506.14 258.606 2497.94 272.803C2489.75 286.992 2480.09 296.907 2477.66 299.394L2509.45 220.675ZM2152.93 167.561C2152.93 192.446 2173.62 212.607 2199.14 212.607C2224.66 212.607 2245.37 192.446 2245.37 167.561C2245.37 142.676 2224.66 122.534 2199.14 122.534C2173.63 122.534 2152.93 142.676 2152.93 167.561Z" fill="#204CCF" stroke="#204CCF"/>
<path d="M2199.14 212.108C2173.89 212.108 2153.43 192.158 2153.43 167.562C2153.43 142.965 2173.89 123.035 2199.14 123.035C2224.39 123.035 2244.87 142.965 2244.87 167.562C2244.87 192.158 2224.39 212.108 2199.14 212.108ZM2509.95 220.59C2505.27 193.613 2469.37 169.508 2392.39 123.035C2337.04 89.6162 2299.67 73.0107 2289.62 68.609C2255.13 53.5148 2228.62 44.8626 2203.7 36.796C2122.82 10.6314 2082.36 -2.63026 2044.04 1.45027C2009.59 5.13409 1982.87 20.4549 1930.83 50.9456C1888.72 75.6177 1842.22 107.412 1781.33 159.798C1682.34 244.979 1689.75 260.281 1623.42 305.979C1545.38 359.744 1496.6 365.071 1498.32 385.984C1501.08 419.554 1626.1 399.567 1747.96 476.473C1851.84 542.008 1890.59 638.278 1916.32 626.32C1929.01 620.445 1920.53 596.641 1930.83 493.438C1935.76 444.113 1940.78 419.724 1949.7 400.133C1963.74 369.284 1986.9 339.341 1976.04 325.532C1975.17 324.417 1974.84 324.398 1965.49 318.844C1957.67 314.197 1949.39 309.02 1932.83 298.687C1926.84 294.946 1908.06 283.083 1900.46 270.86C1899.28 268.99 1897.63 265.91 1898.19 262.283C1898.85 257.9 1902.5 254.368 1905.62 252.932C1908.76 251.477 1913.71 251.232 1935.2 263.7C1942.53 267.951 1946.46 270.614 1957.71 277.699C1964 281.685 1972.05 286.748 1977.32 289.921C1994.66 300.293 2009.48 306.376 2038.4 318.107C2043.07 320.015 2051.95 323.642 2060.04 326.627C2082.09 334.732 2115.74 345.33 2156.28 351.45C2192.51 356.91 2232.4 354.265 2312.21 348.976C2312.21 348.976 2428.21 341.287 2470.75 306.395C2474.59 303.24 2478.02 299.745 2478.02 299.745C2482.89 294.757 2516.79 259.941 2509.95 220.59Z" stroke="#204CCF" stroke-miterlimit="10"/>
<path d="M3.02535 1656.64L3.02505 1656.64C2.05012 1655.32 1.73391 1653.58 2.15425 1651.27C2.57647 1648.96 3.73491 1646.11 5.64982 1642.62C9.47851 1635.65 16.2532 1626.28 25.8852 1613.77L25.489 1613.47L25.8853 1613.77C76.2307 1548.36 121.76 1504.83 153.492 1474.49C156.815 1471.31 159.987 1468.28 162.997 1465.38C182.732 1446.38 199.563 1429.28 214.006 1414.45C216.722 1411.67 219.353 1408.96 221.902 1406.34C232.917 1395.01 242.418 1385.24 250.69 1377.22C260.882 1367.35 269.174 1360.17 276.102 1356.04C283.036 1351.9 288.478 1350.88 293.058 1353.09C296.016 1354.51 297.708 1356.84 298.88 1360.01C299.912 1362.8 300.524 1366.2 301.238 1370.17C301.343 1370.75 301.449 1371.34 301.56 1371.95C303.286 1381.39 305.906 1393.49 315.718 1407L316.122 1406.7L315.718 1407C327.453 1423.13 341.249 1429.98 352.425 1434.83C353.515 1435.3 354.578 1435.75 355.61 1436.19C359.883 1438.01 363.626 1439.6 366.593 1441.46C370.251 1443.75 372.637 1446.39 373.33 1450.26C374.311 1455.73 371.453 1461.1 364.649 1467.28C357.854 1473.46 347.25 1480.33 333.039 1488.79C326.13 1492.91 318.376 1497.39 309.805 1502.34C283.145 1517.76 248.583 1537.74 207.002 1565.33L207.278 1565.75L207.001 1565.33C194.088 1573.9 187.313 1578.68 182.042 1582.4C175.663 1586.9 171.489 1589.85 161.303 1596.08C130.001 1615.2 93.0589 1634.07 62.5683 1646.26C47.3199 1652.36 33.7062 1656.79 23.2276 1658.75C17.986 1659.73 13.5567 1660.08 10.1116 1659.74C6.6544 1659.4 4.28557 1658.36 3.02535 1656.64Z" fill="#204CCF" stroke="#204CCF"/>
<path d="M293.275 1352.64C274.035 1343.38 241.568 1389.04 162.65 1465.02C130.901 1495.59 81.1332 1541.17 25.4891 1613.47C6.22987 1638.48 -1.70268 1651.06 2.62239 1656.94C13.6969 1672.01 98.9184 1634.78 161.564 1596.5C180.164 1585.13 178.787 1584.66 207.278 1565.75C317.15 1492.85 377.934 1473.11 373.823 1450.17C370.913 1433.92 339.435 1438.76 316.123 1406.7C296.631 1379.88 305.707 1358.62 293.275 1352.64Z" stroke="#204CCF" stroke-miterlimit="10"/>
</svg>
